<?xml version="1.0" encoding="UTF-8"?>
<svg id="Logo" xmlns="http://www.w3.org/2000/svg" viewBox="0 0 1080 582">
  <defs>
    <style>
      .cls-1 {
        fill: #231f20;
      }

      .cls-2 {
        fill: #ed0973;
      }

      .cls-3 {
        fill: #d7153d;
      }

      .cls-4 {
        isolation: isolate;
      }

      .cls-5 {
        fill: #ed196e;
      }

      .cls-6 {
        fill: #fff;
      }

      .cls-7 {
        fill: #0058a0;
      }

      .cls-8 {
        fill: #ffc226;
      }
    </style>
  </defs>
  <g id="Layer_1" data-name="Layer 1">
    <g id="Layer_1-2" data-name="Layer 1-2">
      <g>
        <path class="cls-7" d="M589.2,189.5c-.3-.4-.3-.9,0-1.3.3-.4.7-.7,1.2-.7h33.6c.4,0,.8.2,1.1.6.2.4.3.8,0,1.2l-3.1,6.9,14.9,25.6,13.9-33.4c.2-.5.7-.9,1.2-.9h23.1c.5,0,.9.3,1.1.7.2.4.2.9,0,1.3l-32.2,48.5v27.2l3.6,8.9c.2.4,0,.8,0,1.2-.3.4-.6.6-1.1.6h-28.8c-.4,0-.8-.2-1.1-.6-.2-.4-.3-.8,0-1.2l3.6-8.9v-27.2l-30.6-48.4h-.2l-.2-.1Z"/>
        <path class="cls-7" d="M590.3,255.9c-.3-.3-.6-.4-1-.3l-44.9,5.8v-25h30.6c.5,0,1,0,1.3-.4.4-.3.5-.6.6-1l3.9-16.9c.2-.7-.5-1.3-1.2-1.2l-35.2,4.6v-32.7c0-.7-.6-1.3-1.3-1.3h-25.2c-.5,0-.8.2-1.1.6-.2.4-.3.8,0,1.2l3.6,8.9v67.1l-3.4,8.4-.2.5c-.2.4,0,.8,0,1.2.2.3.5.5.9.6h71.7c.7,0,1.3-.6,1.3-1.3v-17.7c0-.4-.2-.7-.5-1h.1v-.1Z"/>
        <path class="cls-7" d="M468.2,131.7c9-4,14.1-10.5,14-19.2-.2-9.7-6.1-17.7-19-20.8-4.2-1-10.2-1.5-18.8-1.5h-38.4c-.4,0-.8.2-1.1.6-.3.4-.3.8-.1,1.2l3.6,8.9v60.9c2.7,1.5,7.1-2.9,9.9-3.1,3,0-1.7,6.4-2,7.9-2.4,5.3,5.5,5.1,8.3,7,3.9,2.3-4.9,3.7-6.3,4.6-.4.2-.8.3-1.1.5h31.5c4.7,0,9.5-.4,12.7-.9,12.9-2.1,23.4-9.9,23.4-24.6s-6.1-17.5-16.7-21.3v-.2h.1ZM431.6,103.9h14.1c8,0,12.8,4.5,12.8,11.1s-3.8,11-12.8,11.9l-14.1,1.4v-24.4ZM446.4,164.3h-14.8v-24.8l14.7,1.5c10.3,1.1,14.3,5.1,14.3,11.7s-3.6,11.6-14.2,11.6Z"/>
        <path class="cls-7" d="M521,132.9s8.3-.8,10.8-1.1c10.2-1.1,17-4.8,17-14.4s-6.8-13.5-17.1-13.5h-10.8v29h.1ZM521,144.6v23.2l3.5,8.9c.2.4,0,.8,0,1.2-.3.4-.6.6-1.1.6h-28.4c-.4,0-.8-.2-1.1-.6-.2-.4-.3-.8-.1-1.2l3.6-8.9v-67l-3.6-8.9c-.2-.4-.1-.9.1-1.2.2-.4.6-.6,1.1-.6h39.8c5,0,8.9.2,11.9.6,17.1,2,26,11.8,26,25s-12,21.6-22.8,24.8c7.8,5.7,11.7,17.3,15.9,28.1,4.8,12.1,8.7,18.9,16,22.7,2.2,1.2,3.8,1.7,3.8,2.8h0c0,1.8-5.4,4.7-13.7,4.7-17.1,0-23.7-11-29.1-24.4-5.8-14.3-8.9-29.7-20.8-29.7h-1.1.2l-.1-.1Z"/>
        <path class="cls-7" d="M714,176.7c.2.4,0,.8,0,1.2-.3.4-.6.6-1.1.6h-28.8c-.4,0-.8-.2-1.1-.6-.2-.4-.3-.8,0-1.2l3.6-8.9v-63.8l-24.9,6.6c-.4,0-.8,0-1.2-.2-.3-.2-.5-.6-.5-.9v-18.2c0-.7.6-1.3,1.3-1.3h74.8c.7,0,1.3.6,1.3,1.3v18.2c0,.4-.2.7-.5.9-.3.2-.8.3-1.2.2l-24.9-6.6v63.8l3.6,8.9h-.4Z"/>
        <path class="cls-7" d="M770.1,100.8v67.1l3.6,8.9c.2.4,0,.8,0,1.2-.2.4-.6.6-1.1.6h-28.8c-.4,0-.8-.2-1.1-.6-.3-.4-.3-.8,0-1.2l3.6-8.9v-67.1l-3.6-8.9c-.2-.4,0-.8,0-1.2.2-.4.6-.6,1.1-.6h28.8c.4,0,.8.2,1.1.6s.3.8,0,1.2l-3.6,8.9Z"/>
        <path class="cls-7" d="M876.4,130.9l-3.1-2.4s8.9,10.8-5.8,10.3c-3.4-.1-6.3-1.7-11.3-2.7-1.6-.3-3,0-4.4.4.4,2.6.5,5.1.5,7.7,0,12.8-4.4,23.7-17.1,23.7-19.2,0-30.2-23.7-30.2-43.2s4.4-23.8,17.1-23.8,7.8,1.1,11.1,3c.6-1.3,1.1-2.7,1.3-5.2.4-4.3-.3-4.6-1.4-10h0v-.3c-1.7-.2-3.4-.2-5.2-.2-27.1,0-47.1,18.9-47.1,46.3s20,46.3,47.1,46.3,48.5-18.3,48.5-46.3,0-2.4,0-3.5h.1l-.1-.1Z"/>
        <path class="cls-7" d="M902.8,121.3v17c0,8-.6,15.7-1.7,21.9-3.3,17.7-11.4,29.7-18.6,36.7-1.7,1.6-2.6,1.7-4.4.6-3.9-2.4-7.9-5-11.7-7.5-1.4-.9-1.5-2.2-.2-3.5,16.3-15.7,21.1-29.4,22.1-49.6,2.9-.2,5.6-1.5,6.6-3.1,1.3-2.2-.4-4.3,1.7-8.2,1.6-3,3.6-2.8,6.2-4.2h0v-.1Z"/>
        <path class="cls-7" d="M969.9,91.9l-5,12.4v72.9c0,.7-.6,1.3-1.3,1.3h-19.4c-.5,0-.9-.3-1.2-.6l-38.9-57.4c.9-.6,1.8-1.5,2.8-2.8h0c2-2.6,1-6.6-2.1-8.5l-5.9-3.6,6.2-2.7c4.2-1.9,5.2-7.3,1.9-10.5h0c-1-.9-1.8-1.5-2.6-2h8.7c.5,0,.9.2,1.2.6l36.4,53.7v-40.1l-5-12.4c-.2-.4,0-.8,0-1.2.3-.4.6-.6,1.1-.6h21.9c.4,0,.8.2,1.1.6s.3.8,0,1.2v-.3h.1Z"/>
        <path class="cls-7" d="M663.6,144.6l4.8-14c.3-1.1-.4-1.8-1.5-1.8-5.8-.2-13.7.5-20.6,1.8l-15.2-40.4h-30.1c-.4,0-.8.2-1,.5-.3.3-.3.7-.2,1.1l2.5,9.1-27,75.8c-.2.4,0,.8,0,1.2.2.4.6.6,1.1.6h20.7c.4,0,.8-.2,1.1-.5.3-.4.4-.7.2-1.3l-3-9.2,1.7-5.2c6.7-6.5,19.5-10.4,30.7-12.1l5.2,14.8-2.2,11.8c0,.4,0,.8.3,1.2s.7.6,1.1.6h30.5c.4,0,.8-.3,1.1-.7.2-.4.3-.8,0-1.2l-11.5-29.7c2.8-.3,6.3-.4,8.3-.4s2.4-.8,2.7-2h.3ZM601,150.3l13.1-38,8.9,24.3c-8.5,2.9-17.1,8-22.1,13.7h.1Z"/>
        <path class="cls-7" d="M394.8,144.9v15.2c0,.4-.2.8-.4,1-2.2-1.1-4.4-2.7-6.3-2.5-.7.5-.5,1.5,0,2.8h-55.6c-.4,0-.7-.2-.9-.6-.2-.4-.3-.8-.1-1.2l3.1-8.7v-50.4l-3.1-8.7c-.1-.4,0-.8.1-1.2.2-.4.5-.6.9-.6h58.8c.6,0,1.1.6,1.1,1.3v14.7c0,.4-.1.7-.4,1s-.6.4-.9.3l-35.5-4.4v17.3l27.2-4c.6,0,1,.4.9,1.1l-3,12.7c0,.4-.3.7-.6,1-.3.3-.7.4-1,.4h-23.4c0-.1,0,16.9,0,16.9l37.8-4.9c.3,0,.7,0,.9.3s.4.6.4,1v.2Z"/>
        <g>
          <path class="cls-7" d="M694.5,187.5v2.6h-4.2v11.6h-2.9v-11.6h-4.3v-2.6h11.5-.1Z"/>
          <path class="cls-7" d="M706.2,187.5h4.2v14.2h-2.8v-5.3l.3-6.9-1,4.3-2.1,8h-3l-2.1-8.1-1-4.2.3,7v5.3h-2.7v-14.2h4.1l2.2,8.3.6,2.8.6-2.8,2.2-8.3h.2v-.1Z"/>
        </g>
        <path class="cls-7" d="M229.8,104.7v21.2l33.8-4.9c.7,0,1.2.4,1.1,1.1l-3.8,16.9c0,.4-.3.8-.7,1.1-.4.3-.8.5-1.1.5l-29.2.2v23.2l44.5-5.8c.4,0,.7,0,1,.3s.4.6.4,1v17.7c0,.7-.6,1.3-1.3,1.3h-71.2c-.4,0-.8-.2-1.1-.6-.2-.4-.3-.8-.1-1.2l3.6-8.9v-67.1l-3.6-8.9c-.2-.4-.1-.8.1-1.2.2-.4.6-.6,1.1-.6h68.5c.7,0,1.3.6,1.3,1.3v17.1c0,.4-.2.7-.4,1-.3.3-.6.4-1,.3l-41.9-5.2v.2h0Z"/>
        <path class="cls-7" d="M197.5,164.2c-11.3,12.9-25.6,16.6-39.8,16.6-31.8,0-47.7-20.1-47.7-46.3s17.9-47.1,49.6-47.1,27.2,4.1,37.1,13.9c.3.3.4.6.4,1s-.2.7-.5,1l-17.2,14.8c-.3.3-.7.4-1.1.3-.4,0-.7-.3-.9-.7-4.4-8.4-12.2-15.7-21.5-15.7s-19.9,9.1-19.9,26.1,10.9,38,38.1,37.9c6.4,0,14.1-1.5,20.5-5.3.7-.4,2.1-.4,2.9.6.8,1,.4,2.3,0,2.9h0Z"/>
        <g>
          <path class="cls-2" d="M906.9,117.6h0c-1,1.3-1.9,2.1-2.8,2.8-.4.3-.9.6-1.3.8-2.6,1.4-4.6,1.3-6.2,4.2-2.1,4-.5,6.1-1.7,8.2-1,1.7-3.7,2.9-6.6,3.1-2.4.2-5-.3-6.6-2l-5.3-4-3.1-2.4s8.9,10.8-5.8,10.3c-3.4-.1-6.3-1.7-11.3-2.7-1.6-.3-3,0-4.4.4-2.6.7-5.3,1.7-9.9,0-2.6-.9-5.3-7.5-3-11.5l3.3-5.8-3.9.3c-3.3.3-7.3-4.1-7.2-7.3h0c0-4.6,1.2-6.3,2.1-8.4.6-1.3,1.1-2.7,1.3-5.2.4-4.3-.3-4.6-1.4-10h0v-.3c-.7-4.4,2.4-8,6.8-6.6,1.3.4,5.1,2.2,5.1,2.2l-2.8-6.8c-1.4-3.4.6-6.8,3.5-8.2,4.5-2.2,6.1,0,11.4-2.2,4.2-1.7,4.9-4.1,9.5-6.4,4.2-2,8.9,1.3,9.9,5.8l1,5c5.3-4.9,12.6-8.6,16-9.7.9-.6,2.2-.9,3.6-.6,2.2.4,3.7,2,3.4,3.6-.3,1.5-2.3,2.5-4.5,2-2.2-.4-3.7-2-3.4-3.6,0-.2,0-.3.2-.5-4.1,2.1-7.4,4.7-10.2,7.7-1.1,1.2-2.2,2.5-3.1,3.8-.9,1.3-1.8,2.6-2.5,3.9-3.7,6.3-5.5,13-6.4,18.4-.3,1.8-.5,3.4-.7,4.9v.3c0,.6-.9.7-1.1.2v-.2c-.2-1.6-.3-3.2-.3-4.7-2.2.5-4.7,1.4-5.2,4.1-.5,2.8,1,6.4,5,7.6,1.5.5,4.3.5,6.5-2.5,1.7-2.4,1.8-5.7-.9-8.4-.4-.4,2.2-12.1,6.4-18.4,1.3-1.9,2.8-3.8,4.5-5.6,1.8-1.9,5-1.8,6.6.3h0c4.3,6.1,3.4,8.5,6.8,12.1,2.4,2.5,3.9,2.5,6.3,4.1.8.5,1.6,1.1,2.6,2h0c3.4,3.2,2.4,8.6-1.9,10.5l-6.2,2.7,5.9,3.6c3.1,1.9,4.1,5.9,2.1,8.5v.6h-.1Z"/>
          <path class="cls-5" d="M893.2,55c-1.5-.3-3,.7-3.3,2.2s.7,3,2.2,3.2c1.5.3,3-.7,3.3-2.2s-.7-3-2.2-3.2Z"/>
          <path class="cls-5" d="M898.4,54.6c-.8,1.3-.3,3.1,1.3,4.1s3.5.7,4.4-.5c.8-1.3.3-3.1-1.3-4.1s-3.5-.7-4.4.5Z"/>
        </g>
        <path class="cls-7" d="M391,180.9c-5.1,5.3-13.4,10.7-25.7,10.7-21.8,0-43.2-12.8-72.4-12.8s-4.7.2-6.4.2-1.3-.6-1.3-1.3,0-.7.2-1.2l2.2-7.8.2-67.9-3.5-9c-.2-.4-.1-.8.1-1.2.3-.4.6-.6,1.1-.6h28.8c.4,0,.8.2,1.1.6.3.4.3.8.1,1.2l-3.5,9v63.3c0,.6.4.9.8.9,27.3,2.4,48.7,11.7,66.7,11.7s3.5-.1,5-.3c2.7.9,6.8,1.5,6.7,4.4h-.2v.1Z"/>
        <path class="cls-8" d="M421,225.6c.6-2.4,2.1-3,4.3-2.7,1.1.2,2.3.4,3.5.6,1.4.3,2.5.5,3.3.9v-26h-11.4c-1.8,0-7.4.4-8.2-2.7-.5-1.9-1.3-6.4.5-7.4,1.3-.6,7.4,3.4,7.8,1.9,0-3.6-7.2-9.1-3.4-11.7.3-.2.6-.4,1.1-.5,1.4-.8,10.1-2.2,6.3-4.6-2.9-1.9-10.7-1.6-8.3-7,.3-1.5,5-8,2-7.9-2.9.2-7.3,4.7-9.9,3.1-.6-.4-1.1-1-1.5-2.1-.8-1.6-1.9-8.5-3.9-7.1-2.3,2-1.9,10.1-6.1,9.6-.8-.1-1.7-.4-2.5-.9-2.2-1.1-4.4-2.7-6.3-2.5-.7.5-.5,1.5,0,2.8,1.2,2.6,3.7,6.2,2.8,7.8-1.3,2.4-5.8,2.7-8,3.8-2.5,1.1-1.7,2.3.5,3.1.3.1.6.3.9.4,2.7.9,6.8,1.5,6.7,4.4,0,.4-.1.9-.4,1.5-.4,1.7-4.7,7.5-3.5,9,.7.6,5.6-3.2,6.7-2.6,1.8,1,1.4,5.4.6,7.4-.9,2.2-2.8,2.4-5.5,2.3-8.2,0-17.4-.1-23.5,0-1.8,0-2.8,1.5-3.4,3.2-.9,2.4-2.2,5.9-1.4,8,1,2.5,4.3,1.4,5.8,3.3.6,1,.4,2.3.4,3.5-.3,2.8-.8,6.9-1.1,9.5-.3,2-.2,4.4-3.2,2.7-1.6-.8-3.1-1.7-5.2-2.7-2.4-1.3-5.2-2.8-7.4-4-1.1-.5-2.5-1.5-2.7,0,0,4.4.8,10.8,1,15.9.2,1.9.2,4.5,1.5,5.8,1.3,1.6,3.8,2.2,4.6,4,.9,1.9,0,16.4-7.1,23.4-1.8,1.8-2.5,4.7.8,4.8,9.8,0,27.9.8,29.5.2,1.2-.5,1.4-2.7,1.6-4.3.9-11.2,3.4-25.2,22.5-26.1,21.3-1,25.5,11.8,26.5,26.5.1,1.2.2,2.1.5,2.6v-.5l3.6-8.9v-30.6c-.4.8-.9,1.4-1.5,1.8h0c-1.8.7-3.9-.1-5.7-.4-2.1-.4-3.7-.6-4.4-2.1-.4-1-.4-2-.3-3.1.2-1.6.5-3.6.9-5.1l-.4-.3h0ZM386.5,233.8c-.7,1.5-2.3,1.7-4.4,2.1-1.9.3-4,1.1-5.8.4h0c-2-1.1-2.4-5.1-3-7.3-.8-4,.7-4.8,4.8-5.5,1.6-.3,3.4-.7,5-.7s2.4,1,2.9,2.8c.4,1.5.7,3.5.8,5.1,0,1.1.1,2.2-.3,3.1h0ZM410.2,228c-.1,1.7,0,4.2-1.1,5.3h0c-.6.6-1.5.7-2.4.7h-4.4c-2.1,0-3.7-.1-4.6-1.4-.9-1.4-.8-3.1-.9-4.8v-3c.1-2.2,1.1-3.4,3.3-3.8,1.9-.3,4.2-.2,6.2-.2,3.5,0,4.2.5,4.2,3.5s0,2.4-.1,3.7h-.2ZM403.5,183h0c-5.3,0-9.2-5.4-7.4-10.4,2.3-7.1,12.5-7.1,14.9-.1,1.8,5.1-2,10.6-7.4,10.5h-.1Z"/>
        <path class="cls-7" d="M542.4,288.6c0,.6-.5,1.3-.9,1.7-3.4,3.5-11,6.8-19.5,6.8-29,0-42.7-19.7-65.9-63.9v32.1l3.5,8.8c.2.5.2.9,0,1.3-.3.4-.7.6-1.1.6h-28.6c-.4,0-.8-.2-1.1-.6-.1-.2-.2-.5-.2-.7v-.5l3.6-8.9v-67.1l-3.6-8.9c-.2-.4-.1-.8.1-1.2.3-.4.6-.6,1.1-.6h28.7c.4,0,.8.2,1.1.6.3.4.3.8.1,1.2l-3.5,8.9v26.4l27.5-36.5c.3-.4.7-.6,1.2-.6h24.6c.5,0,.9.3,1.1.8s0,1-.4,1.4l-32.8,33c26.7,48.3,36,64.6,59.2,64.6h4.1c1.4,0,1.9.5,1.9,1.3h-.2Z"/>
      </g>
    </g>
  </g>
  <g>
    <path class="cls-1" d="M551.02,506.2c-9.09,0-14.96,9.87-17.27,17.72h-.22v-6.8c0-3.29.22-6.48.22-9.34-7.98,1.6-15.16,2.61-22.51,3.17v1.57c3.33.68,6.87,3,6.87,10.76v23.6c0,9.16-2.17,17.79-7.49,17.26-4.5-.43-5.97-5.44-5.97-10.4v-22.15c0-18.89-9.98-24.97-24.93-24.97-9.84-.32-19.15,2.54-28.77,5.42l4.66,17.36,1.65-.46c2.9-11.2,8.87-18.67,18.14-18.79,8.07,0,12.94,6.16,12.94,15.04v4.95h-2.44c-15.81,0-37.41,4.42-37.41,20.02,0,12.86,12.07,17.12,23.36,17.12,8.19,0,13.39-4.26,17.6-10.86l2.44,9.29h18.72c5.18,0,10.47-.39,15.55-.39s10.4.39,15.62.39v-1.59c-5.99-1.65-7.54-8.08-7.54-17.26v-8.54c0-8.1,2.2-16.73,8.63-16.73,2.88,0,4.64,1.88,6.43,3.89l6.63-19.27h-4.98.05ZM488.74,543.41c0,7.49-2.49,19.95-12.43,19.95-6.48,0-10.03-6.12-10.03-12.11,0-12.48,9.35-17.68,20.41-17.68h2.05v9.86-.02Z"/>
    <path class="cls-1" d="M641.79,502.98c4.86,0,8.41-4.31,8.41-8.97s-3.56-8.97-8.41-8.97-8.41,4.31-8.41,8.97,3.53,8.97,8.41,8.97Z"/>
    <path class="cls-1" d="M650.18,552.06v-44.32c-7.66,1.62-14.85,2.63-22.17,3.19v1.57c3.34.7,5.99,3,5.99,6.43v33.15c0,6.57-1.82,12.14-7.37,12.02-4.55-.46-7.18-3.89-7.18-9.04v-29.35c0-11.73-8.32-19.54-20.05-19.54-9.5,0-15.57,4.18-19.58,12.57h-.22v-10.97c-7.64,1.6-14.85,2.61-22.15,3.17v1.57c3.33.68,6.86,3,6.86,10.76v23.6c0,9.17-1.55,15.6-7.54,17.26v1.59c5.22,0,10.54-.39,15.64-.39s10.4.39,15.6.39v-1.59c-5.97-1.65-7.52-8.08-7.52-17.26v-13.18c0-7.06,2.52-21.37,12.04-21.37,8.87,0,10.74,9.43,10.74,16.61v26.14c0,5.54-2.88,8.63-6.75,9.07v1.59c5.08,0,10.3-.39,14.84-.39s10.08.38,15.11.39h.29c5.12-.02,10.33-.41,15.35-.41s10.39.41,15.6.41v-1.59c-5.99-.89-7.52-5.42-7.52-12.06v-.03Z"/>
    <path class="cls-1" d="M704.6,528.39c4.11-8.17,6.19-11.94,13.85-17.24v-1.59c-3.67,0-7.86.39-11.19.39s-7.2-.39-10.86-.39v1.59c4.21.99,6.87,2.97,6.87,6.41,0,4.21-1.55,9.63-3.55,13.18l-8.08,14.7-13.93-25.22c-.56-.99-1.13-2.66-1.13-3.97,0-3.1,3.79-4.57,6.55-5.1v-1.59c-5.22,0-11.31.39-16.05.39s-10.18-.39-15.5-.39v2.01c5.64,3.44,4.43,1.67,10.42,12.18l20.48,39.73c1.33,2.52,1.88,3.41,2.3,3.41h.24c.55,0,1.65-2.1,2.2-3.41l17.38-35.09h0Z"/>
    <path class="cls-1" d="M803.64,546.84v-49.97c0-4.09.32-8.42.32-11.83-7.86,1.76-15.4,3.09-22.92,3.87v1.67c4.74.99,6.41,3.21,6.41,8.19v48.07c0,9.16-1.94,17.46-7.45,17.26-3.84-.29-5.92-5.44-5.92-10.39v-22.15c0-18.89-9.99-24.97-24.93-24.97-9.84-.32-19.15,2.54-28.77,5.42l4.64,17.36,1.65-.46c2.9-11.2,8.87-18.67,18.16-18.79,8.07,0,12.93,6.16,12.93,15.04v4.95h-2.42c-15.81,0-37.4,4.42-37.4,20.02,0,12.86,12.06,17.12,23.35,17.12,8.19,0,13.4-4.26,17.6-10.86l2.46,9.29h18.72c5.13,0,10.42-.41,15.48-.41s10.42.41,15.62.41v-1.59c-5.99-1.65-7.52-8.1-7.52-17.29l-.02.03ZM758.16,543.41c0,7.49-2.51,19.95-12.4,19.95-6.51,0-10.04-6.12-10.04-12.11,0-12.48,9.34-17.68,20.41-17.68h2.03v9.86-.02Z"/>
    <path class="cls-1" d="M445.73,499.77c-9-4.66-21.06-7.28-34.8-7.28-21.37,0-41.86,12.93-41.86,37.57s20.5,37.55,41.86,37.55c14.51,0,24.39-3.1,35.56-8.85l-5.32-19.12-1.55.55c-2.22,14.58-10.52,23.86-25.6,23.86-17.82,0-23.26-20.43-23.26-34s5.42-34.04,23.26-34.04c14.96,0,21.38,12.06,23.16,25.19l1.76.68,6.77-22.12.03.02Z"/>
    <path class="cls-3" d="M320.1,499.07s-.61,7.83,3.48,20.17c.39,1.19.84,2.42,1.31,3.7.32.85.67,1.71,1.04,2.59h0c.36.89.75,1.77,1.18,2.69h0c.2.46.43.92.65,1.38l15.02,29.94.05.1v.02c.03.05.07.12.1.2.05.12.14.29.24.48.05.09.09.17.12.26.07.15.15.32.26.51.05.14.12.27.2.43.12.26.26.55.39.85,0,.02.02.05.03.07.05.1.1.22.15.34,0,.02.02.05.03.07.09.2.19.43.29.65.05.12.12.26.17.38.15.32.29.65.44,1.01s.31.7.46,1.06c.12.29.26.58.38.89.07.15.14.32.2.48.19.44.38.9.55,1.36.05.14.1.27.15.41h-119.11l68.98-75.58s2.97-3.02,4.13-3.92c0,0,3.44-2.8,2.47-5.68,0,0-.43-1.77-1.72-2.46-1.3-.67-4.01-.8-4.01-.8-2.1.02-3.84-3.82-3.89-8.61-.05-4.77,1.6-8.66,3.7-8.7,0,0,1.35-.12,2.4-.05,0,0,6.07.15,17.36,2.32,0,0,1.86.34,2.69.2l4.6-.78s1.88-.43,3.87-2.03l45.74-37.98s.02,0,.05-.03h0c.15-.1.63-.31,1.43-.19,0,0,.73.07,2.3.41.65.14,1.43.32,2.35.56,2.98.77,7.45,2.15,13.68,4.55,0,0,7.28,2.92,15.04,6.87,0,0,10.88,5.3,11.66,6.33h0c-6.17,1.26-49.79,10.47-80.85,25.85,0,0-14.03,6.28-17.34,16.25v.02c-.02.05-.07.2-.15.43-.02.05-.03.12-.07.19-.6,1.81-2.18,7.13-2.2,12.76l-.03.03Z"/>
    <path class="cls-7" d="M364.37,486.49c-.12.49-1.06.87-1.06.87l-8.51,3.87c-.05.48-.12.95-.17,1.42v.1c-.19,2.32-3.55,44.51-5.25,69.73-1.71-21.42-6.41-36.32-6.41-36.32-5.56-18.28-6.07-25.34-6.07-25.34-1.02-10.08,3.33-19.82,3.33-19.82,3.22-6.86,9.84-9.91,9.84-9.91,34.38-17.16,56.96-22.7,65.77-24.79l-53.12,29.98h0l-.02.02c-.07.03-.26.15-.55.32-.07.05-.17.1-.26.17-.51.34-1.19.84-1.93,1.48-.14.1-.27.22-.41.36-.14.12-.27.26-.41.39-.1.09-.2.19-.31.31-.1.1-.19.19-.27.29-.09.09-.15.17-.24.27-.12.14-.24.27-.36.41,0,.02-.03.03-.05.05l5.51,4.43c1.24.94.92,1.69.92,1.69l.02.02Z"/>
    <path class="cls-6" d="M420.72,443.58l-4.84,2.75h-.02c-8.82,2.1-31.41,7.62-65.77,24.79,0,0-6.6,3.05-9.84,9.91,0,0-4.35,9.74-3.33,19.82,0,0,.51,7.06,6.07,25.34,0,0,4.71,14.9,6.39,36.32-.27,4.13-.43,6.65-.39,6.65h-1.98c-1.98-5.03-4.28-9.58-4.28-9.58l-15.02-29.94c-8.59-18.16-7.64-30.54-7.64-30.54.03-6.92,2.42-13.4,2.42-13.4,3.31-9.98,17.34-16.25,17.34-16.25,31.05-15.38,74.67-24.59,80.85-25.85h.03Z"/>
    <path class="cls-1" d="M811.21,485.79h-2.3v-.77h5.53v.77h-2.3v6.12h-.92v-6.12h0Z"/>
    <path class="cls-1" d="M815.22,485h1.26l2.18,5.8,2.18-5.8h1.26v6.91h-.87v-5.75h-.02l-2.15,5.75h-.78l-2.15-5.75h-.02v5.75h-.87v-6.91h-.03Z"/>
    <ellipse class="cls-6" cx="299.86" cy="472.04" rx="2.37" ry="5.24"/>
  </g>
  <g class="cls-4">
    <g class="cls-4">
      <path class="cls-7" d="M340.13,353.63v22c0,.25-.12.46-.33.59-.21.13-.45.14-.67.03l-3.07-1.53-3.34-1.67c-1.29.66-2.63,1.21-4,1.67h-.02c-3.34,1.1-6.9,1.6-10.43,1.6-35.83,0-35.86-49.23,0-49.23,7.32,0,14.81,2.18,20.19,7.33.15.14.22.32.21.52,0,.2-.09.38-.25.51l-9.97,8.39c-.17.14-.37.19-.58.15-.21-.04-.38-.16-.48-.35-1.66-3.13-4.08-6.02-7.27-7.66-2.44-1.25-5.24-1.68-7.9-.87-2.7.83-4.75,2.79-6.03,5.28-1.75,3.4-1.95,7.49-1.47,11.22.55,4.25,2.41,8.01,5.47,11.01,4.4,4.32,10.78,6.57,17.09,6.59v-15.6l-1.89-4.96c-.08-.22-.06-.45.08-.64.13-.19.34-.3.57-.3h15.32c.23,0,.44.11.57.3.13.19.16.42.08.64l-1.89,4.96Z"/>
    </g>
    <g class="cls-4">
      <path class="cls-7" d="M347.83,369.08v-19.25l-2.27-3.77c-.11-.19-.13-.39-.05-.59.08-.2.23-.34.43-.41l2.37-.75s.02,0,.03,0l11.44-3.12c.21-.06.42-.02.59.12.17.13.27.32.27.54v2.42c1.54-1.41,3.52-2.58,5.36-3.23,2.01-.71,4.21-.97,6.28-.34.29.09.48.35.48.65v10.17c0,.28-.17.53-.43.63-.26.11-.55.04-.75-.17-1.7-1.8-4.18-2.46-6.58-2.03-1.63.29-3.87,1.31-4.3,3.09-.04.18-.06.36-.06.54v15.51l1.89,4.71c.09.22.06.44-.07.63-.13.19-.33.3-.56.3h-15.32c-.23,0-.43-.11-.56-.3-.13-.19-.15-.42-.07-.63l1.89-4.71Z"/>
    </g>
    <g class="cls-4">
      <path class="cls-7" d="M411.49,373.79c.09.22.06.44-.07.63-.13.19-.33.3-.56.3h-13.38c-.38,0-.68-.31-.68-.68v-2.08c-3.29,2.49-7.13,3.57-11.34,3.57-4.62,0-9.3-1.76-11.22-6.27-1.9-4.49-.09-9.46,3.11-12.84,4.86-5.14,12.42-6.85,19.26-6.86.06,0,.11,0,.17,0-.08-1.23-.41-2.59-1.5-3.27-4.44-2.78-11.47,1.28-15.18,3.92-.17.12-.36.16-.56.11-.2-.05-.35-.18-.44-.36l-2.96-6.14c-.08-.17-.09-.35-.02-.53.07-.18.19-.31.37-.39,9.87-4.25,33.11-5.38,33.11,10.09v16.11l1.89,4.71ZM396.8,355.39c-2.72.28-5.16,1.51-6.98,3.61-1.47,1.69-2.61,4.13-2.49,6.41.05.94.36,1.83,1.16,2.39,1.47,1.02,3.66.41,5.04-.49,2.17-1.41,3.27-3.78,3.27-6.34v-5.58Z"/>
    </g>
    <g class="cls-4">
      <path class="cls-7" d="M438.64,369.08v-17.63c0-.82-.11-2.12-.95-2.56-1.17-.61-3.38.47-4.4,1.04-1.08.6-2.17,1.35-3.13,2.14v17l1.89,4.71c.09.22.06.44-.07.63-.13.19-.33.3-.56.3h-15.32c-.23,0-.43-.11-.56-.3-.13-.19-.16-.42-.07-.63l1.75-4.37v-19.82l-2.14-3.54c-.11-.19-.13-.4-.05-.6.08-.2.24-.34.45-.4l13.82-3.87c.21-.06.42-.02.59.11.18.13.27.32.27.54v3.53c1.57-1.24,3.17-2.47,4.92-3.44,2.15-1.18,4.53-1.6,6.96-1.58,5.83.05,9.4,3.75,9.4,9.62v19.11l1.89,4.71c.09.22.06.44-.07.63-.13.19-.33.3-.56.3h-15.32c-.23,0-.43-.11-.56-.3-.13-.19-.15-.42-.07-.63l1.89-4.71Z"/>
    </g>
    <g class="cls-4">
      <path class="cls-7" d="M482.8,336.48l-2.27-3.77c-.11-.19-.13-.39-.05-.59.08-.2.23-.34.43-.41l2.37-.75s.02,0,.03,0l11.44-3.12c.21-.06.42-.02.59.12.17.13.27.32.27.54v40.59l1.89,4.71c.09.22.06.44-.07.63-.13.19-.33.3-.56.3h-13.38c-.38,0-.68-.31-.68-.68v-2.66c-1.77,1.71-3.85,3.06-6.28,3.69-2.52.65-5.13.61-7.64-.09-7.53-2.1-13-9.59-13-17.37,0-4.07,1.22-7.97,3.79-11.15,2.29-2.83,5.46-4.83,9-5.68,1.53-.37,3.11-.52,4.67-.43,3.62.2,6.8,1.26,9.45,3.57v-7.44ZM482.23,355.12c-.64-2.77-1.94-5.65-4.19-7.49-1.47-1.2-3.44-1.95-5.33-1.41-1.71.49-2.82,1.89-3.42,3.51-.97,2.62-.66,5.84-.04,8.5.57,2.48,1.67,5.05,3.38,6.96,1.19,1.33,2.86,2.5,4.72,2.46.3,0,.59-.04.88-.11.25-.06.5-.14.74-.25,1.73-.77,2.74-2.59,3.25-4.33.73-2.5.6-5.33.02-7.85Z"/>
    </g>
    <g class="cls-4">
      <path class="cls-7" d="M518.67,328.72c-.09-.22-.06-.45.07-.65s.34-.3.57-.3h29.52c6.99,0,12.71,5.72,12.71,12.71,0,4.13-2.02,7.96-5.33,10.34,3.98,2.25,6.52,6.48,6.52,11.12,0,7.03-5.75,12.77-12.77,12.77h-30.65c-.24,0-.44-.11-.57-.3s-.16-.43-.07-.65l1.89-4.71v-35.62l-1.89-4.71ZM542.71,347.43c3.3,0,6.01-2.71,6.01-6.01s-2.71-6.01-6.01-6.01h-9.32v12.02h9.32ZM533.39,367.08h10.5c3.3,0,6.01-2.71,6.01-6.01s-2.71-6.01-6.01-6.01h-10.5v12.02Z"/>
      <path class="cls-7" d="M603.52,373.79c.09.22.06.44-.07.63-.13.19-.33.3-.56.3h-13.38c-.38,0-.68-.31-.68-.68v-2.08c-3.29,2.49-7.13,3.57-11.34,3.57-4.62,0-9.3-1.76-11.21-6.27-1.9-4.49-.09-9.46,3.11-12.84,4.86-5.14,12.42-6.85,19.25-6.86.06,0,.11,0,.17,0-.08-1.23-.41-2.59-1.5-3.27-4.44-2.78-11.47,1.28-15.18,3.92-.17.12-.36.16-.56.11s-.35-.18-.44-.36l-2.96-6.14c-.08-.17-.09-.35-.02-.53.07-.18.19-.31.37-.39,9.87-4.25,33.11-5.38,33.11,10.09v16.11l1.89,4.71ZM588.83,355.39c-2.72.28-5.16,1.51-6.98,3.61-1.47,1.69-2.61,4.13-2.49,6.41.05.94.36,1.83,1.16,2.39,1.47,1.02,3.66.41,5.04-.49,2.17-1.41,3.27-3.78,3.27-6.34v-5.58Z"/>
    </g>
    <g class="cls-4">
      <path class="cls-7" d="M631.34,369.08v-17.63c0-.82-.11-2.12-.95-2.56-1.17-.61-3.38.47-4.4,1.04-1.08.6-2.17,1.35-3.13,2.14v17l1.89,4.71c.09.22.06.44-.07.63-.13.19-.33.3-.56.3h-15.32c-.23,0-.43-.11-.56-.3-.13-.19-.16-.42-.07-.63l1.75-4.37v-33.38l-2.14-3.54c-.11-.19-.13-.4-.05-.6.08-.21.24-.35.45-.41l13.82-3.87c.21-.06.42-.02.59.11.17.13.27.32.27.54v17.09c1.57-1.24,3.17-2.47,4.92-3.44,2.15-1.18,4.53-1.6,6.96-1.58,5.83.05,9.4,3.75,9.4,9.62v19.11l1.89,4.71c.09.21.06.44-.07.63-.13.19-.33.3-.56.3h-15.32c-.23,0-.43-.11-.56-.3-.13-.19-.15-.42-.07-.63l1.89-4.71Z"/>
    </g>
    <g class="cls-4">
      <path class="cls-7" d="M686.6,373.79c.09.22.06.44-.07.63-.13.19-.33.3-.56.3h-13.38c-.38,0-.68-.31-.68-.68v-2.08c-3.29,2.49-7.13,3.57-11.34,3.57-4.62,0-9.3-1.76-11.21-6.27-1.9-4.49-.09-9.46,3.11-12.84,4.86-5.14,12.42-6.85,19.26-6.86.06,0,.11,0,.17,0-.08-1.23-.41-2.59-1.5-3.27-4.44-2.78-11.47,1.28-15.18,3.92-.17.12-.36.16-.56.11s-.35-.18-.44-.36l-2.96-6.14c-.08-.17-.09-.35-.02-.53.07-.18.19-.31.37-.39,9.87-4.25,33.11-5.38,33.11,10.09v16.11l1.89,4.71ZM671.91,355.39c-2.72.28-5.16,1.51-6.98,3.61-1.47,1.69-2.61,4.13-2.49,6.41.05.94.36,1.83,1.16,2.39,1.47,1.02,3.66.41,5.04-.49,2.17-1.41,3.27-3.78,3.27-6.34v-5.58Z"/>
    </g>
    <g class="cls-4">
      <path class="cls-7" d="M712.99,369.08v-17.63c0-.79-.08-2.33-.95-2.72-1.04-.47-2.98.64-3.83,1.18-1,.64-1.96,1.38-2.87,2.15,0,5.67-.07,11.34-.07,17.01l1.89,4.71c.09.22.06.44-.07.63-.13.19-.33.3-.56.3h-15.11c-.23,0-.43-.11-.56-.3s-.15-.42-.07-.63l1.89-4.71v-19.89l-2.37-3.08c-.14-.18-.18-.4-.11-.62.07-.22.23-.38.44-.45l2.37-.75s.02,0,.03,0l11.44-3.12c.21-.06.42-.02.59.12.17.13.27.32.27.54v3.51c1.18-.98,2.35-1.98,3.6-2.85,2.25-1.56,4.91-2.19,7.62-2.14,3.98.06,7.25,1.94,8.59,5.63,1.43-1.18,2.87-2.43,4.38-3.48,2.26-1.56,4.91-2.19,7.63-2.14,1.92.03,3.84.51,5.44,1.59,2.73,1.83,3.79,4.85,3.79,8.03v19.8l1.61,4.03c.09.22.06.44-.07.63-.13.19-.33.3-.56.3h-15.04c-.23,0-.43-.11-.56-.3-.13-.19-.15-.42-.07-.63l1.89-4.71v-17.63c0-.79-.08-2.33-.95-2.72-1.04-.47-2.98.64-3.83,1.18-1.05.67-2.06,1.45-3.01,2.27v17.58l1.62,4.03c.09.22.06.44-.07.63-.13.19-.33.3-.56.3h-15.04c-.23,0-.43-.11-.56-.3-.13-.19-.16-.42-.07-.63l1.89-4.71Z"/>
    </g>
    <g class="cls-4">
      <path class="cls-7" d="M788.56,373.79c.09.22.06.44-.07.63-.13.19-.33.3-.56.3h-13.38c-.38,0-.68-.31-.68-.68v-2.08c-3.29,2.49-7.13,3.57-11.34,3.57-4.62,0-9.3-1.76-11.22-6.27-1.9-4.49-.09-9.46,3.11-12.84,4.86-5.14,12.42-6.85,19.26-6.86.06,0,.11,0,.17,0-.08-1.23-.41-2.59-1.5-3.27-4.44-2.78-11.47,1.28-15.18,3.92-.17.12-.36.16-.56.11-.2-.05-.35-.18-.44-.36l-2.96-6.14c-.08-.17-.09-.35-.02-.53.07-.18.19-.31.37-.39,9.87-4.25,33.11-5.38,33.11,10.09v16.11l1.89,4.71ZM773.87,355.39c-2.72.28-5.16,1.51-6.98,3.61-1.46,1.69-2.61,4.13-2.49,6.41.05.94.36,1.83,1.16,2.39,1.47,1.02,3.66.41,5.04-.49,2.17-1.41,3.27-3.78,3.27-6.34v-5.58Z"/>
    </g>
  </g>
</svg>